<svg xmlns="http://www.w3.org/2000/svg" viewBox="0 0 1024 1024">
  <rect width="1024" height="1024" fill="#97c76c"/>
  <g opacity=".22" fill="#2e7a43">
    <circle cx="790" cy="610" r="160"/>
    <ellipse cx="800" cy="790" rx="210" ry="150"/>
    <circle cx="860" cy="460" r="120"/>
  </g>
  <g opacity=".2" fill="#ecdd78">
    <circle cx="260" cy="330" r="220"/>
    <circle cx="520" cy="790" r="180"/>
  </g>
  <g fill="none" stroke="#111" stroke-width="18" stroke-linecap="round" stroke-linejoin="round">
    <path fill="#111" d="M160 260c112-142 340-138 458-4 60 70 72 150 36 242-138 38-282 20-430-52-56 42-112 46-168 12 0-82 34-148 104-198z"/>
    <path fill="#ffd5c8" stroke="#111" d="M210 420c120-72 286-42 362 72 76 112 42 260-76 334-118 76-288 44-366-68-80-114-44-264 80-338z"/>
    <path d="M300 560l-20 72M480 560l-22 72"/>
    <path d="M280 750c82 52 174 56 276 10"/>
    <path d="M158 850c122 80 264 84 426 14"/>
    <path d="M150 830c-54 42-84 92-92 150M480 828c52 46 88 96 108 150"/>
  </g>
  <g stroke="#2d6a3d" stroke-width="26" stroke-linecap="round" opacity=".28">
    <path d="M650 246c88-36 178-34 270 8"/>
    <path d="M678 366c72-28 148-26 228 8"/>
    <path d="M72 148c92-40 182-34 270 18"/>
  </g>
</svg>
